<?xml version="1.0" encoding="iso-8859-1"?>
<!-- Generator: Adobe Illustrator 19.0.0, SVG Export Plug-In . SVG Version: 6.00 Build 0)  -->
<svg version="1.1" id="Layer_1" xmlns="http://www.w3.org/2000/svg" xmlns:xlink="http://www.w3.org/1999/xlink" x="0px" y="0px"
	 viewBox="0 0 512.001 512.001" style="enable-background:new 0 0 512.001 512.001;" xml:space="preserve">
<rect x="251.173" style="fill:#E2B44D;" width="11.8" height="33.546"/>
<polygon style="fill:#F4C653;" points="305.72,505.032 206.296,505.032 212.024,424.178 213.312,406.133 213.312,406.08 
	214.739,385.955 220.199,308.855 220.768,300.809 221.476,290.81 221.54,289.942 222.055,282.764 222.988,269.559 228.062,198.027 
	229.339,179.983 229.339,179.972 230.787,159.6 232.075,141.363 232.836,130.636 233.609,119.79 234.22,111.133 234.37,109.062 
	235.497,93.089 238.812,76.997 241.279,27.65 270.737,27.65 273.194,76.997 276.519,93.089 277.646,109.062 277.796,111.133 
	278.407,119.79 279.18,130.636 279.942,141.363 281.229,159.6 282.677,179.972 282.677,179.983 283.954,198.027 289.028,269.559 
	289.961,282.764 290.476,289.942 290.54,290.81 291.249,300.809 291.817,308.855 297.277,385.955 298.704,406.08 298.704,406.133 
	299.992,424.178 "/>
<g>
	<polygon style="fill:#E2B44D;" points="241.279,27.65 251.245,27.65 250.44,76.997 249.368,93.089 248.96,111.133 247.844,159.6 
		247.372,179.972 247.372,179.983 246.965,198.027 245.323,269.559 244.851,289.942 244.83,290.81 244.422,308.855 242.652,385.955 
		242.191,406.08 242.191,406.133 241.772,424.178 239.916,505.032 206.296,505.032 212.024,424.178 213.312,406.133 213.312,406.08 
		214.739,385.955 220.199,308.855 221.476,290.81 221.54,289.942 222.988,269.559 228.062,198.027 229.339,179.983 229.339,179.972 
		230.787,159.6 234.22,111.133 235.497,93.089 238.812,76.997 	"/>
	<polygon style="fill:#E2B44D;" points="299.992,424.178 212.024,424.178 213.312,406.133 256.544,390.922 298.704,406.133 	"/>
	<polygon style="fill:#E2B44D;" points="291.249,300.809 220.768,300.809 221.476,290.81 221.54,289.942 222.055,282.764 
		289.961,282.764 290.476,289.942 290.54,290.81 	"/>
	<polygon style="fill:#E2B44D;" points="283.954,198.027 228.062,198.027 229.339,179.983 259.536,174.744 282.677,179.983 	"/>
	<polygon style="fill:#E2B44D;" points="277.796,111.133 234.22,111.133 235.497,93.089 257.617,84.646 276.519,93.089 	"/>
	<path style="fill:#E2B44D;" d="M214.682,76.992L214.682,76.992c0.933,9.14,8.632,16.092,17.819,16.092h47.009
		c9.187,0,16.885-6.952,17.819-16.092l0,0H214.682z"/>
</g>
<path style="fill:#CEA146;" d="M230.773,76.992h-16.092c0.933,9.14,8.632,16.092,17.819,16.092h16.092
	C239.405,93.083,231.707,86.132,230.773,76.992z"/>
<g>
	
		<rect x="237.843" y="284.554" transform="matrix(-0.9997 -0.024 0.024 -0.9997 478.2334 681.6199)" style="fill:#C1943A;" width="10.728" height="106.772"/>
	
		<rect x="235.025" y="400.949" transform="matrix(-0.9997 -0.024 0.024 -0.9997 469.7718 916.9892)" style="fill:#C1943A;" width="10.728" height="109.453"/>
	
		<rect x="240.556" y="174.595" transform="matrix(-0.9997 -0.0239 0.0239 -0.9997 486.3967 455.3271)" style="fill:#C1943A;" width="10.728" height="100.324"/>
	
		<rect x="215.924" y="219.385" transform="matrix(-0.0239 -0.9997 0.9997 -0.0239 47.7607 496.1299)" style="fill:#C1943A;" width="100.324" height="10.728"/>
	
		<rect x="216.914" y="450.307" transform="matrix(-0.0239 -0.9997 0.9997 -0.0239 -177.4081 738.1246)" style="fill:#C1943A;" width="109.453" height="10.728"/>
	
		<rect x="215.427" y="332.575" transform="matrix(-0.0239 -0.9997 0.9997 -0.0239 -62.6044 614.7515)" style="fill:#C1943A;" width="106.771" height="10.728"/>
	<polygon style="fill:#C1943A;" points="278.407,119.79 233.609,119.79 234.22,111.133 234.37,109.062 277.646,109.062 
		277.796,111.133 	"/>
	<polygon style="fill:#C1943A;" points="279.942,141.363 232.075,141.363 232.836,130.636 279.18,130.636 	"/>
	<rect x="114.395" y="498.055" style="fill:#C1943A;" width="283.211" height="13.946"/>
</g>
<path style="fill:#E2B44D;" d="M196.432,385.949l0.166,2.066c0.835,10.346,9.474,18.316,19.853,18.316h79.108
	c10.379,0,19.018-7.971,19.853-18.316l0.166-2.066H196.432z"/>
<path style="fill:#CEA146;" d="M220.736,388.016l-0.166-2.066h-24.137l0.166,2.066c0.835,10.346,9.474,18.316,19.853,18.316h24.137
	C230.209,406.332,221.57,398.361,220.736,388.016z"/>
<path style="fill:#E2B44D;" d="M201.191,269.554l0.166,2.066c0.835,10.346,9.474,18.316,19.853,18.316h69.592
	c10.379,0,19.018-7.971,19.853-18.316l0.166-2.066H201.191L201.191,269.554z"/>
<path style="fill:#CEA146;" d="M225.826,271.625l-0.166-2.066h-24.137l0.166,2.066c0.835,10.346,9.474,18.316,19.853,18.316h24.137
	C235.299,289.942,226.659,281.971,225.826,271.625z"/>
<path style="fill:#E2B44D;" d="M209.854,159.595l0.166,2.066c0.835,10.346,9.474,18.316,19.853,18.316h52.263
	c10.379,0,19.018-7.971,19.853-18.316l0.166-2.066H209.854z"/>
<path style="fill:#CEA146;" d="M232.55,161.661l-0.166-2.066h-22.528l0.166,2.066c0.835,10.346,9.474,18.316,19.853,18.316h22.528
	C242.022,179.978,233.383,172.007,232.55,161.661z"/>
<g>
</g>
<g>
</g>
<g>
</g>
<g>
</g>
<g>
</g>
<g>
</g>
<g>
</g>
<g>
</g>
<g>
</g>
<g>
</g>
<g>
</g>
<g>
</g>
<g>
</g>
<g>
</g>
<g>
</g>
</svg>
