<?xml version="1.0" encoding="iso-8859-1"?>
<!-- Generator: Adobe Illustrator 19.0.0, SVG Export Plug-In . SVG Version: 6.00 Build 0)  -->
<svg version="1.1" id="Layer_1" xmlns="http://www.w3.org/2000/svg" xmlns:xlink="http://www.w3.org/1999/xlink" x="0px" y="0px"
	 viewBox="0 0 512.001 512.001" style="enable-background:new 0 0 512.001 512.001;" xml:space="preserve">
<path style="fill:#EADAA9;" d="M256.001,53.756c-2.664,0-4.825-2.16-4.825-4.825V4.825c0-2.664,2.16-4.825,4.825-4.825
	c2.664,0,4.824,2.16,4.824,4.825v44.107C260.826,51.596,258.666,53.756,256.001,53.756z"/>
<path style="fill:#D8C89A;" d="M255.398,55.505V4.825c0-1.903,1.112-3.534,2.714-4.319C257.472,0.192,256.762,0,256.001,0
	c-2.664,0-4.825,2.16-4.825,4.825v50.68c0,2.664,2.16,4.825,4.825,4.825c0.761,0,1.47-0.192,2.111-0.505
	C256.51,59.039,255.398,57.408,255.398,55.505z"/>
<path style="fill:#EADAA9;" d="M87.143,197.583c-2.664,0-4.825-2.16-4.825-4.825v-27.195c0-2.664,2.16-4.825,4.825-4.825
	c2.664,0,4.825,2.16,4.825,4.825v27.195C91.967,195.423,89.807,197.583,87.143,197.583z"/>
<path style="fill:#D8C89A;" d="M86.54,192.759v-27.195c0-1.903,1.112-3.534,2.714-4.319c-0.64-0.314-1.35-0.505-2.111-0.505
	c-2.664,0-4.825,2.16-4.825,4.825v27.195c0,2.664,2.16,4.825,4.825,4.825c0.761,0,1.47-0.192,2.111-0.505
	C87.652,196.292,86.54,194.662,86.54,192.759z"/>
<path style="fill:#EADAA9;" d="M424.859,197.583c-2.664,0-4.825-2.16-4.825-4.825v-27.195c0-2.664,2.16-4.825,4.825-4.825
	c2.664,0,4.824,2.16,4.824,4.825v27.195C429.683,195.423,427.523,197.583,424.859,197.583z"/>
<path style="fill:#D8C89A;" d="M424.255,192.759v-27.195c0-1.903,1.112-3.534,2.714-4.319c-0.64-0.314-1.35-0.505-2.111-0.505
	c-2.664,0-4.825,2.16-4.825,4.825v27.195c0,2.664,2.16,4.825,4.825,4.825c0.761,0,1.47-0.192,2.111-0.505
	C425.367,196.292,424.255,194.662,424.255,192.759z"/>
<g>
	<polyline style="fill:#EADAA9;" points="390.735,304.352 390.735,246.676 458.98,246.676 458.98,304.352 	"/>
	<polyline style="fill:#EADAA9;" points="53.019,304.352 53.019,246.676 121.264,246.676 121.264,304.352 	"/>
</g>
<g>
	<polyline style="fill:#D8C89A;" points="53.019,304.352 53.019,246.676 71.732,246.676 71.732,304.352 	"/>
	<polyline style="fill:#D8C89A;" points="390.735,304.352 390.735,246.676 409.176,246.676 409.176,304.352 	"/>
</g>
<g>
	<path style="fill:#EADAA9;" d="M458.762,254.09c3.697-6.038,5.83-13.134,5.83-20.731c0-15.362-8.72-28.687-21.479-35.3
		c-7.611-3.948-13.968-9.939-18.256-17.362c-4.311,7.464-10.737,13.433-18.373,17.423c-12.737,6.652-21.414,20.006-21.362,35.382
		c0.025,7.519,2.177,14.576,5.882,20.589"/>
	<path style="fill:#EADAA9;" d="M121.047,254.09c3.697-6.038,5.83-13.134,5.83-20.731c0-15.362-8.72-28.687-21.479-35.3
		c-7.611-3.948-13.968-9.939-18.256-17.362c-4.311,7.464-10.737,13.433-18.373,17.423c-12.737,6.652-21.414,20.006-21.362,35.382
		c0.025,7.519,2.177,14.576,5.882,20.589"/>
</g>
<g>
	<path style="fill:#D8C89A;" d="M87.146,180.701c-1.966,7.454-4.897,13.424-8.371,17.416c-5.789,6.658-9.746,20.01-9.721,35.388
		c0.012,7.514,0.989,14.57,2.678,20.589H53.29c-3.703-6.019-5.862-13.074-5.886-20.589c-0.048-15.378,8.624-28.73,21.361-35.388
		C76.4,194.124,82.828,188.155,87.146,180.701z"/>
	<path style="fill:#D8C89A;" d="M424.591,180.701c-1.966,7.454-4.897,13.424-8.371,17.416c-5.789,6.658-9.745,20.01-9.721,35.388
		c0.012,7.514,0.989,14.57,2.678,20.589h-18.442c-3.703-6.019-5.862-13.074-5.886-20.589c-0.048-15.378,8.624-28.73,21.361-35.388
		C413.844,194.124,420.273,188.155,424.591,180.701z"/>
</g>
<rect x="160.717" y="231.396" style="fill:#EADAA9;" width="190.568" height="280.606"/>
<rect x="160.717" y="241.829" style="fill:#D8C89A;" width="46.992" height="43.049"/>
<g>
	<rect x="36.624" y="272.814" style="fill:#EADAA9;" width="438.753" height="239.187"/>
	<path style="fill:#EADAA9;" d="M350.682,241.827c10.324-16.862,16.283-36.678,16.283-57.894c0-42.902-24.352-80.111-59.981-98.577
		c-21.252-11.024-39.006-27.753-50.983-48.486c-12.037,20.842-29.984,37.511-51.309,48.655
		c-35.569,18.574-59.8,55.868-59.655,98.806c0.072,20.999,6.079,40.707,16.427,57.496"/>
</g>
<g>
	<path style="fill:#D8C89A;" d="M229.79,85.525c10.894-11.145,20.062-27.813,26.21-48.655
		c-12.037,20.842-29.984,37.511-51.309,48.655c-35.569,18.574-59.8,55.868-59.655,98.806c0.072,20.999,6.079,40.707,16.427,57.496
		h46.243c-5.286-16.789-8.355-36.497-8.392-57.496C199.243,141.393,211.62,104.1,229.79,85.525z"/>
	<path style="fill:#D8C89A;" d="M317.022,386.539v125.184H194.986V386.539c0-2.702,0.217-5.379,0.639-7.997
		c2.641-16.777,13.533-31.371,29.321-38.548l31.058-14.112l31.046,14.112C305.299,348.292,317.022,366.493,317.022,386.539z"/>
</g>
<path style="fill:#EADAA9;" d="M266.365,434.784v76.939h-71.379V386.539c0-2.702,0.217-5.379,0.639-7.997l9.721-4.414l31.046,14.112
	C254.641,396.537,266.365,414.738,266.365,434.784z"/>
<g>
	<rect x="346.46" y="272.814" style="fill:#D8C89A;" width="9.649" height="239.187"/>
	<rect x="155.892" y="272.814" style="fill:#D8C89A;" width="9.649" height="239.187"/>
	<path style="fill:#D8C89A;" d="M77.796,373.018V333.33c0-6.858,4.008-13.083,10.251-15.922l10.622-4.829l10.622,4.829
		c6.243,2.838,10.251,9.064,10.251,15.922v39.688H77.796z"/>
	<path style="fill:#D8C89A;" d="M77.796,467.096v-39.688c0-6.858,4.008-13.083,10.251-15.922l10.622-4.829l10.622,4.829
		c6.243,2.838,10.251,9.064,10.251,15.922v39.688H77.796z"/>
	<path style="fill:#D8C89A;" d="M392.457,373.018V333.33c0-6.858,4.008-13.083,10.251-15.922l10.622-4.829l10.622,4.829
		c6.243,2.838,10.251,9.064,10.251,15.922v39.688H392.457z"/>
	<path style="fill:#D8C89A;" d="M392.457,467.096v-39.688c0-6.858,4.008-13.083,10.251-15.922l10.622-4.829l10.622,4.829
		c6.243,2.838,10.251,9.064,10.251,15.922v39.688H392.457z"/>
</g>
<g>
	<path style="fill:#C6B58B;" d="M321.24,511.723h-8.443v-125.18c0-18.346-10.791-35.108-27.492-42.701l-29.303-13.322
		l-29.303,13.322c-16.702,7.594-27.494,24.354-27.494,42.701v125.18h-8.443v-125.18c0-21.649,12.734-41.427,32.441-50.386
		l32.798-14.911l32.797,14.911c19.708,8.959,32.441,28.737,32.441,50.386V511.723z"/>
	<path style="fill:#C6B58B;" d="M123.764,377.239H73.575V333.33c0-8.492,4.996-16.25,12.726-19.765l12.368-5.624l12.369,5.624
		c7.73,3.515,12.726,11.272,12.726,19.765v43.909H123.764z M82.018,368.797h33.304V333.33c0-5.19-3.053-9.931-7.777-12.079
		l-8.875-4.034l-8.873,4.034c-4.724,2.148-7.777,6.889-7.777,12.079v35.466H82.018z"/>
	<path style="fill:#C6B58B;" d="M123.764,471.317H73.575v-43.909c0-8.492,4.996-16.25,12.726-19.765l12.368-5.624l12.369,5.624
		c7.73,3.515,12.726,11.272,12.726,19.765v43.909H123.764z M82.018,462.874h33.304v-35.466c0-5.19-3.053-9.931-7.777-12.079
		l-8.875-4.034l-8.873,4.034c-4.724,2.148-7.777,6.889-7.777,12.079v35.466H82.018z"/>
	<path style="fill:#C6B58B;" d="M438.425,377.239h-50.189V333.33c0-8.492,4.996-16.251,12.727-19.765l12.369-5.623l12.369,5.624
		c7.73,3.515,12.726,11.272,12.726,19.765v43.908H438.425z M396.677,368.797h33.304V333.33c0-5.19-3.053-9.931-7.776-12.079
		l-8.875-4.034l-8.875,4.034c-4.724,2.148-7.777,6.888-7.777,12.079v35.466H396.677z"/>
	<path style="fill:#C6B58B;" d="M438.425,471.317h-50.189v-43.909c0-8.492,4.996-16.251,12.727-19.765l12.369-5.623l12.369,5.624
		c7.73,3.515,12.726,11.272,12.726,19.765v43.908H438.425z M396.677,462.874h33.304v-35.466c0-5.19-3.053-9.931-7.776-12.079
		l-8.875-4.034l-8.875,4.034c-4.724,2.148-7.777,6.888-7.777,12.079v35.466H396.677z"/>
</g>
<g>
</g>
<g>
</g>
<g>
</g>
<g>
</g>
<g>
</g>
<g>
</g>
<g>
</g>
<g>
</g>
<g>
</g>
<g>
</g>
<g>
</g>
<g>
</g>
<g>
</g>
<g>
</g>
<g>
</g>
</svg>
