<?xml version="1.0" encoding="iso-8859-1"?>
<!-- Generator: Adobe Illustrator 19.0.0, SVG Export Plug-In . SVG Version: 6.00 Build 0)  -->
<svg version="1.1" id="Layer_1" xmlns="http://www.w3.org/2000/svg" xmlns:xlink="http://www.w3.org/1999/xlink" x="0px" y="0px"
	 viewBox="0 0 511.999 511.999" style="enable-background:new 0 0 511.999 511.999;" xml:space="preserve">
<path style="fill:#684C1F;" d="M442.89,283.516c-1.414,0-2.843-0.395-4.117-1.222c-3.512-2.278-4.512-6.971-2.234-10.483
	l40.224-62.003c2.278-3.512,6.971-4.51,10.482-2.234c3.512,2.278,4.512,6.971,2.234,10.483l-40.224,62.003
	C447.803,282.299,445.371,283.516,442.89,283.516z"/>
<path style="fill:#BA8E35;" d="M191.84,365.098c0.012,0,0.012,0,0.012,0c16.429,9.573,35.842,14.493,56.631,14.493
	c30.805,0,58.578-10.797,78.12-31.528l29.149-82.154c0-73.724-48.026-133.504-107.269-133.504
	c-54.672,0-99.795,50.918-106.43,116.725"/>
<path style="fill:#A07427;" d="M214.208,338.44l-22.156-51.607c-18.832-43.864-8.92-95.281,25.995-127.832
	c13.634-12.711,29.779-21.478,47.342-24.94c-5.508-1.086-11.154-1.656-16.907-1.656c-54.672,0-99.795,50.918-106.43,116.725
	l49.787,115.967c0.012,0,0.012,0,0.012,0c16.429,9.573,35.842,14.493,56.631,14.493c5.772,0,11.436-0.379,16.961-1.131
	c-0.901-0.122-1.845-0.281-2.823-0.471C240.943,373.759,222.921,358.736,214.208,338.44z"/>
<path style="fill:#BA8E35;" d="M511.999,265.912c0,73.733-48.026,113.682-107.269,113.682s-107.269-39.95-107.269-113.682H511.999z"
	/>
<path style="fill:#A07427;" d="M341.768,265.912h-44.307c0,73.733,48.026,113.682,107.269,113.682
	c7.595,0,15.005-0.661,22.153-1.961C378.271,368.791,341.768,330.191,341.768,265.912z"/>
<path style="fill:#684C1F;" d="M207.476,142.514c-0.012,0.012-0.012,0.012-0.012,0.012c-1.329,1.586-2.099,3.44-2.099,5.422
	c0,5.795,6.529,10.494,14.575,10.494c8.057,0,14.575-4.699,14.575-10.494s-6.518-10.494-14.575-10.494c-0.28,0-0.56,0-0.828,0.012"
	/>
<path style="fill:#E2B44D;" d="M54.778,239.946c-12.639-27.723-13.491-56.913,0.448-80.489c0.027-0.054,0.057-0.118,0.094-0.168
	c3.067-5.154,10.929-3.796,12.153,2.07c6.188,29.536,37.168,65.837,82.283,92.5c19.447,11.494,39.187,19.828,57.667,24.876
	l-63.353,53.366L54.778,239.946z"/>
<path style="fill:#F4C653;" d="M237.08,271.226l-2.332,13.175l-5.562,31.376l-107.269,36.145l-52.445-35.854H69.46
	c-17.373-9.608-31.959-21.839-42.838-35.527C8.305,257.514,0.504,230.37,7.582,204.695c0.012-0.047,0.023-0.105,0.047-0.175
	c1.621-5.772,9.561-6.518,12.289-1.189c13.688,26.899,53.087,53.821,103.608,67.755c10.435,2.868,20.743,5.025,30.747,6.494
	c23.541,3.475,45.461,3.148,63.569-0.56C224.872,275.598,231.32,273.651,237.08,271.226z"/>
<path style="fill:#E2B44D;" d="M237.08,271.226l-7.894,44.552l-107.269,36.145l-52.445-35.854H69.46
	c-17.373-9.608-31.959-21.839-42.838-35.527c0,0,76.045,33.463,127.651-2.962c23.541,3.475,45.461,3.148,63.569-0.56L237.08,271.226
	z"/>
<path style="fill:#F4C653;" d="M263.582,244.128l-9.631,34.909c5.503,47.595-34.828,83.6-95.621,96.216
	c-5.807,1.213-11.811,2.204-17.979,2.973C69.437,387.088,6.626,351.794,0.085,299.395c-0.012-0.093-0.023-0.187-0.035-0.268
	c-0.711-5.993,6.39-9.549,10.983-5.643c8.675,7.369,20.719,13.35,35.154,17.583c7.206,2.122,15.006,3.801,23.273,5.002
	c19.052,2.775,40.611,3.02,63.161,0.198c44.82-5.597,82.831-21.944,103.643-42.115l9.631-34.898
	c1.119-4.069,4.815-6.739,8.826-6.739c0.805,0,1.632,0.117,2.449,0.338C262.054,234.194,264.923,239.243,263.582,244.128z"/>
<ellipse style="fill:#684C1F;" cx="265.305" cy="167.981" rx="14.575" ry="10.494"/>
<path style="fill:#E2B44D;" d="M158.33,375.254c-5.807,1.213-11.811,2.204-17.979,2.973C69.437,387.088,6.626,351.794,0.085,299.395
	c-0.012-0.093-0.023-0.187-0.035-0.268c-0.711-5.993,6.39-9.549,10.983-5.643c8.675,7.369,20.719,13.35,35.154,17.583
	c0,0,34.245,54.882,112.12,64.187C158.318,375.254,158.318,375.254,158.33,375.254z"/>
<g>
</g>
<g>
</g>
<g>
</g>
<g>
</g>
<g>
</g>
<g>
</g>
<g>
</g>
<g>
</g>
<g>
</g>
<g>
</g>
<g>
</g>
<g>
</g>
<g>
</g>
<g>
</g>
<g>
</g>
</svg>
