<?xml version="1.0" encoding="iso-8859-1"?>
<!-- Generator: Adobe Illustrator 19.0.0, SVG Export Plug-In . SVG Version: 6.00 Build 0)  -->
<svg version="1.1" id="Layer_1" xmlns="http://www.w3.org/2000/svg" xmlns:xlink="http://www.w3.org/1999/xlink" x="0px" y="0px"
	 viewBox="0 0 512 512" style="enable-background:new 0 0 512 512;" xml:space="preserve">
<path style="fill:#4CB0D8;" d="M7.43,340.081c-4.104,0-7.43-3.327-7.43-7.43v-72.799c0-29.167,23.729-52.897,52.897-52.897
	c4.104,0,7.43,3.327,7.43,7.43s-3.327,7.43-7.43,7.43c-20.973,0-38.036,17.063-38.036,38.036v72.799
	C14.861,336.754,11.534,340.081,7.43,340.081z"/>
<path style="fill:#53BEF4;" d="M478.003,395.401c-3.578,0-6.493-2.915-6.493-6.493V180.387c0-32.477-26.327-58.803-58.792-58.803
	h-7.682C392.107,77.492,351.354,45.29,303.079,45.29c-58.209,0-105.478,46.8-106.232,104.838l-0.023-0.023h-64.119
	c-49.155,0-89.005,39.85-89.005,89.017V466.71h98.894V384.77c21.685,6.447,45.612,10.025,70.761,10.025
	c20.657,0,40.479-2.412,58.918-6.847v78.763h98.894V319.713c5.601,1.909,11.591,2.949,17.833,2.949
	c5.476,0,10.711,1.109,15.467,3.121c4.755,2.012,9.031,4.927,12.632,8.516c7.179,7.19,11.637,17.113,11.637,28.099v39.233
	c0,20.199,16.358,36.546,36.546,36.546H512v-42.777H478.003z"/>
<g>
	<path style="fill:#4CB0D8;" d="M165.286,150.107h-32.578c-49.161,0-89.013,39.852-89.013,89.013v227.585h32.578V239.119
		C76.273,189.959,116.126,150.107,165.286,150.107z"/>
	<path style="fill:#4CB0D8;" d="M408.797,140.914c-0.091-0.149-0.183-0.297-0.274-0.446
		c-36.581-60.975-117.367-48.778-147.089,2.286c-29.722,51.053,30.488,114.315,30.488,114.315v0.126
		c-53.442-5.579-95.098-50.756-95.098-105.661c0-58.678,47.578-106.244,106.255-106.244C358.167,45.29,403.47,87.22,408.797,140.914
		z"/>
</g>
<path style="fill:#40A3C1;" d="M376.229,74.497c-41.13-12.46-87.588-2.423-120.099,30.088
	c-32.522,32.522-42.548,79.014-30.076,120.145c-18.107-19.056-29.23-44.823-29.23-73.196c0-58.678,47.578-106.244,106.255-106.244
	C331.429,45.29,357.184,56.39,376.229,74.497z"/>
<g>
	<path style="fill:#4CB0D8;" d="M371.164,347.606c-60.289-33.871-37.427-87.691-37.427-87.691v7.488
		c0,24.28,15.65,44.903,37.427,52.322V347.606z"/>
	<polygon style="fill:#4CB0D8;" points="298.78,375.956 298.78,466.71 272.271,466.71 272.271,387.948 	"/>
</g>
<circle style="fill:#4D4D4D;" cx="406.903" cy="231.442" r="12.289"/>
<g>
</g>
<g>
</g>
<g>
</g>
<g>
</g>
<g>
</g>
<g>
</g>
<g>
</g>
<g>
</g>
<g>
</g>
<g>
</g>
<g>
</g>
<g>
</g>
<g>
</g>
<g>
</g>
<g>
</g>
</svg>
