<?xml version="1.0" encoding="iso-8859-1"?>
<!-- Generator: Adobe Illustrator 19.0.0, SVG Export Plug-In . SVG Version: 6.00 Build 0)  -->
<svg version="1.1" id="Layer_1" xmlns="http://www.w3.org/2000/svg" xmlns:xlink="http://www.w3.org/1999/xlink" x="0px" y="0px"
	 viewBox="0 0 512 512" style="enable-background:new 0 0 512 512;" xml:space="preserve">
<g>
	<path style="fill:#C1943A;" d="M239.181,342.028c-2.539,0-4.843-1.728-5.467-4.305l-34.523-142.19
		c-0.734-3.022,1.121-6.068,4.144-6.802c3.025-0.733,6.069,1.122,6.801,4.144l34.523,142.19c0.734,3.022-1.121,6.068-4.144,6.802
		C240.067,341.976,239.621,342.028,239.181,342.028z"/>
	<path style="fill:#C1943A;" d="M272.82,342.028c-0.44,0-0.886-0.052-1.334-0.16c-3.023-0.734-4.878-3.779-4.144-6.802
		l34.524-142.19c0.733-3.022,3.778-4.878,6.801-4.144c3.023,0.734,4.878,3.779,4.144,6.802l-34.522,142.19
		C277.663,340.3,275.359,342.028,272.82,342.028z"/>
</g>
<polyline style="fill:#F4C653;" points="298.806,476.959 298.806,405.266 213.195,405.266 213.195,476.959 "/>
<polyline style="fill:#E2B44D;" points="242.195,476.959 242.195,405.266 213.195,405.266 213.195,476.959 "/>
<g>
	<path style="fill:#E6E6E6;" d="M268.515,141.384c-0.806,0-1.623-0.173-2.4-0.54c-2.813-1.327-4.017-4.683-2.69-7.497
		c9.035-19.146,9.036-41.108,0.001-60.254c-10.476-22.2-10.476-47.664,0-69.864c1.327-2.815,4.688-4.015,7.496-2.69
		c2.813,1.327,4.017,4.683,2.69,7.497c-9.035,19.145-9.035,41.106,0,60.25c10.477,22.201,10.476,47.667-0.001,69.869
		C272.651,140.191,270.626,141.384,268.515,141.384z"/>
	<path style="fill:#E6E6E6;" d="M243.477,141.384c-0.806,0-1.623-0.173-2.4-0.54c-2.813-1.327-4.017-4.683-2.69-7.497
		c9.035-19.146,9.036-41.108,0.001-60.254c-10.476-22.2-10.476-47.664,0-69.864c1.328-2.815,4.686-4.015,7.496-2.69
		c2.813,1.327,4.017,4.683,2.69,7.497c-9.035,19.145-9.035,41.106,0,60.25c10.477,22.201,10.476,47.667-0.001,69.869
		C247.613,140.191,245.588,141.384,243.477,141.384z"/>
	<path style="fill:#E6E6E6;" d="M198.708,162.414c-0.928,0-1.869-0.23-2.737-0.714c-2.717-1.515-3.691-4.945-2.177-7.662
		c8.785-15.754,8.786-33.826,0.001-49.58c-10.726-19.239-10.726-41.308,0-60.548c1.515-2.716,4.944-3.692,7.662-2.176
		c2.717,1.515,3.691,4.945,2.177,7.662c-8.783,15.753-8.783,33.825,0,49.578c10.728,19.241,10.726,41.311-0.001,60.551
		C202.602,161.371,200.685,162.414,198.708,162.414z"/>
	<path style="fill:#E6E6E6;" d="M313.279,162.414c-0.928,0-1.869-0.23-2.737-0.714c-2.717-1.515-3.691-4.945-2.177-7.662
		c8.786-15.754,8.786-33.826,0.001-49.58c-10.726-19.239-10.726-41.308,0-60.548c1.515-2.716,4.944-3.692,7.662-2.176
		c2.717,1.515,3.691,4.945,2.177,7.662c-8.783,15.753-8.783,33.825,0,49.578c10.727,19.241,10.726,41.311-0.001,60.551
		C317.173,161.371,315.256,162.414,313.279,162.414z"/>
</g>
<path style="fill:#666666;" d="M304.191,376.419c0-26.615-21.576-48.192-48.192-48.192s-48.192,21.576-48.192,48.192"/>
<path style="fill:#4D4D4D;" d="M268.954,330.003c-4.124-1.149-8.464-1.775-12.953-1.775c-26.615,0-48.192,21.576-48.192,48.192
	h25.906C233.716,354.293,248.632,335.663,268.954,330.003z"/>
<path style="fill:#C1943A;" d="M256.001,357.956c-3.111,0-5.632-2.522-5.632-5.632V166.046c0-3.11,2.521-5.632,5.632-5.632
	c3.111,0,5.632,2.522,5.632,5.632v186.278C261.633,355.434,259.112,357.956,256.001,357.956z"/>
<path style="fill:#F4C653;" d="M293.348,417.483h-74.695c-13.05,0-23.629-10.579-23.629-23.629l0,0
	c0-13.05,10.579-23.629,23.629-23.629h74.695c13.05,0,23.629,10.579,23.629,23.629l0,0
	C316.977,406.903,306.398,417.483,293.348,417.483z"/>
<path style="fill:#E2B44D;" d="M224.31,393.853c0-13.05,10.58-23.629,23.63-23.629h-29.286c-13.05,0-23.63,10.579-23.63,23.629
	s10.58,23.629,23.63,23.629h29.286C234.888,417.483,224.31,406.903,224.31,393.853z"/>
<path style="fill:#F4C653;" d="M293.348,512h-74.695c-13.05,0-23.629-10.579-23.629-23.629l0,0c0-13.05,10.579-23.629,23.629-23.629
	h74.695c13.05,0,23.629,10.579,23.629,23.629l0,0C316.977,501.421,306.398,512,293.348,512z"/>
<path style="fill:#E2B44D;" d="M224.31,488.371c0-13.05,10.58-23.629,23.63-23.629h-29.286c-13.05,0-23.63,10.579-23.63,23.629
	S205.604,512,218.654,512h29.286C234.888,512,224.31,501.421,224.31,488.371z"/>
<g>
</g>
<g>
</g>
<g>
</g>
<g>
</g>
<g>
</g>
<g>
</g>
<g>
</g>
<g>
</g>
<g>
</g>
<g>
</g>
<g>
</g>
<g>
</g>
<g>
</g>
<g>
</g>
<g>
</g>
</svg>
