<?xml version="1.0" encoding="iso-8859-1"?>
<!-- Generator: Adobe Illustrator 19.0.0, SVG Export Plug-In . SVG Version: 6.00 Build 0)  -->
<svg version="1.1" id="Layer_1" xmlns="http://www.w3.org/2000/svg" xmlns:xlink="http://www.w3.org/1999/xlink" x="0px" y="0px"
	 viewBox="0 0 512 512" style="enable-background:new 0 0 512 512;" xml:space="preserve">
<path style="fill:#F4C653;" d="M286.199,171.652h-56.971c-51.379,0-93.058-41.666-93.058-93.058V66.325h12.283
	c19.064,0,36.771,5.721,51.507,15.551c5.928,3.939,11.379,8.55,16.234,13.717L286.199,171.652z"/>
<path style="fill:#E2B44D;" d="M286.199,171.652h-49.544c-4.572-3.346-8.77-7.077-12.567-11.12
	c-16.442-17.488-25.599-40.839-25.315-64.94c0.052-4.56,0.452-9.145,1.188-13.717c5.928,3.939,11.379,8.55,16.234,13.717
	L286.199,171.652z"/>
<g>
	<path style="fill:#F4C653;" d="M317.198,172.737l-34.588,0.439l-25.922,0.336c-0.879-0.607-1.757-1.214-2.609-1.86
		c-4.572-3.346-8.77-7.077-12.567-11.12c-16.442-17.488-25.599-40.839-25.315-64.94c0.142-11.289,2.338-22.732,6.82-33.814
		l4.611-11.379l11.379,4.611c13.446,5.451,24.953,13.691,34.059,23.778c3.332,3.667,6.342,7.581,9.015,11.701l31.062,72.741
		l3.862,9.042L317.198,172.737z"/>
	<path style="fill:#F4C653;" d="M494.647,66.325v12.27c0,51.392-41.666,93.058-93.058,93.058h-48.227l61.259-76.061
		c4.869-5.167,10.332-9.777,16.261-13.73c14.736-9.816,32.444-15.538,51.482-15.538C482.364,66.325,494.647,66.325,494.647,66.325z"
		/>
</g>
<path style="fill:#E2B44D;" d="M432.069,95.591c0.297,24.101-8.873,47.453-25.315,64.94c-3.797,4.043-7.995,7.775-12.554,11.12
	h-40.839l61.259-76.061c4.869-5.167,10.332-9.777,16.261-13.73C431.631,86.447,432.018,91.033,432.069,95.591z"/>
<path style="fill:#F4C653;" d="M414.621,95.591c0.297,24.101-8.873,47.453-25.315,64.94c-3.797,4.043-7.995,7.775-12.554,11.12
	c-0.852,0.633-1.731,1.253-2.609,1.86l-25.793-0.556l-31.346-0.685l-8.201-0.181l4.34-8.861l35.608-72.768
	c2.687-4.12,5.696-8.034,9.015-11.701c9.118-10.075,20.601-18.302,34.059-23.752l11.366-4.611l4.611,11.379
	C412.296,72.86,414.491,84.304,414.621,95.591z"/>
<path style="fill:#E2B44D;" d="M348.349,172.957c-1.628,3.023-3.383,5.98-5.282,8.873c-3.087,4.766-6.561,9.351-10.384,13.742
	h-34.536c-3.823-4.365-7.285-8.951-10.398-13.717v-0.026c-1.847-2.829-3.564-5.709-5.14-8.653c-0.284-0.504-0.556-1.008-0.827-1.524
	c-1.679-3.204-3.204-6.458-4.585-9.777c-10.075-24.256-12.05-51.069-5.954-76.345c0.543-2.26,1.15-4.507,1.821-6.742
	c3.332,3.667,6.342,7.581,9.015,11.701l31.062,72.741l35.608-72.768c2.687-4.12,5.696-8.034,9.015-11.701
	c0.671,2.235,1.292,4.494,1.834,6.755C366.639,114.72,362.906,145.976,348.349,172.957z"/>
<path style="fill:#F4C653;" d="M328.44,173.51c2.893-3.315,5.51-6.776,7.838-10.367c14.235-21.767,18.379-48.187,12.475-72.673
	c-3.883-16.096-12.097-31.349-24.661-43.912l-8.681-8.681l-8.681,8.681c-12.562,12.562-20.777,27.83-24.645,43.926
	c-5.903,24.486-1.759,50.891,12.462,72.658v0.015c2.341,3.592,4.958,7.052,7.838,10.353"/>
<g>
	<path style="fill:#F75252;" d="M193.523,318.574H7.445c-4.112,0-7.445-3.333-7.445-7.445s3.333-7.445,7.445-7.445h186.078
		c4.112,0,7.445,3.333,7.445,7.445S197.635,318.574,193.523,318.574z"/>
	<path style="fill:#F75252;" d="M455.35,318.574H512c-45.723-38.095-62.95-100.598-43.203-156.744l0.653-1.855H158.791
		c24.144,29.734,35.587,67.794,31.864,105.924l-5.154,52.676h23.801"/>
</g>
<g>
	<path style="fill:#F4C653;" d="M332.326,217.572c-69.263,0-125.412,56.148-125.412,125.412s56.148,125.412,125.412,125.412
		s125.412-56.148,125.412-125.412S401.589,217.572,332.326,217.572z M332.326,442.878c-55.17,0-99.895-44.724-99.895-99.895
		s44.724-99.895,99.895-99.895s99.895,44.724,99.895,99.895S387.496,442.878,332.326,442.878z"/>
	<circle style="fill:#F4C653;" cx="332.329" cy="342.981" r="16.93"/>
	<path style="fill:#F4C653;" d="M344.198,254.825L344.198,254.825c6.556,13.113,6.556,25.438,0,38.551l-11.872,32.679
		l-11.872-32.679c-6.556-13.113-6.556-25.438,0-38.551l0,0C327.011,241.712,337.641,241.712,344.198,254.825z"/>
	<path style="fill:#F4C653;" d="M320.454,431.144L320.454,431.144c-6.556-13.113-6.556-25.438,0-38.551l11.872-32.679l11.872,32.679
		c6.556,13.113,6.556,25.438,0,38.551l0,0C337.641,444.256,327.011,444.256,320.454,431.144z"/>
	<path style="fill:#F4C653;" d="M261.914,288.623L261.914,288.623c14.634,0.879,25.308,7.041,33.386,19.275l22.365,26.621
		l-34.236-6.058c-14.634-0.878-25.308-7.041-33.386-19.275l0,0C241.964,296.951,247.279,287.746,261.914,288.623z"/>
	<path style="fill:#F4C653;" d="M402.739,397.345L402.739,397.345c-14.634-0.878-25.308-7.041-33.386-19.275l-22.365-26.621
		l34.236,6.058c14.634,0.878,25.308,7.041,33.386,19.275l0,0C422.688,389.017,417.373,398.224,402.739,397.345z"/>
	<path style="fill:#F4C653;" d="M250.042,376.782L250.042,376.782c8.078-12.235,18.752-18.397,33.386-19.275l34.236-6.058
		l-22.365,26.621c-8.078,12.235-18.752,18.397-33.386,19.275l0,0C247.279,398.224,241.964,389.017,250.042,376.782z"/>
	<path style="fill:#F4C653;" d="M414.609,309.186L414.609,309.186c-8.078,12.235-18.752,18.397-33.386,19.275l-34.236,6.058
		l22.365-26.621c8.078-12.235,18.752-18.397,33.386-19.275l0,0C417.373,287.746,422.688,296.951,414.609,309.186z"/>
</g>
<g>
	<path style="fill:#E2B44D;" d="M332.326,474.123c-72.31,0-131.139-58.829-131.139-131.138c0-72.311,58.829-131.139,131.139-131.139
		s131.139,58.829,131.139,131.139C463.465,415.294,404.635,474.123,332.326,474.123z M332.326,223.299
		c-65.995,0-119.685,53.69-119.685,119.685c0,65.994,53.69,119.684,119.685,119.684s119.685-53.69,119.685-119.684
		C452.011,276.99,398.321,223.299,332.326,223.299z"/>
	<path style="fill:#E2B44D;" d="M332.326,370.172c-14.991,0-27.188-12.196-27.188-27.188c0-14.992,12.196-27.188,27.188-27.188
		s27.188,12.196,27.188,27.188C359.513,357.976,347.318,370.172,332.326,370.172z M332.326,330.687
		c-6.781,0-12.298,5.517-12.298,12.298s5.516,12.298,12.298,12.298c6.782,0,12.298-5.517,12.298-12.298
		S339.106,330.687,332.326,330.687z"/>
	<path style="fill:#E2B44D;" d="M332.326,448.606c-58.24,0-105.621-47.382-105.621-105.621s47.382-105.621,105.621-105.621
		s105.621,47.382,105.621,105.621S390.566,448.606,332.326,448.606z M332.326,248.817c-51.924,0-94.168,42.244-94.168,94.168
		s42.244,94.168,94.168,94.168s94.168-42.244,94.168-94.168S384.25,248.817,332.326,248.817z"/>
</g>
<path style="fill:#F4C653;" d="M435.604,189.72H199.658c-4.112,0-7.445-3.333-7.445-7.445s3.333-7.445,7.445-7.445h235.946
	c4.112,0,7.445,3.333,7.445,7.445S439.716,189.72,435.604,189.72z"/>
<g>
</g>
<g>
</g>
<g>
</g>
<g>
</g>
<g>
</g>
<g>
</g>
<g>
</g>
<g>
</g>
<g>
</g>
<g>
</g>
<g>
</g>
<g>
</g>
<g>
</g>
<g>
</g>
<g>
</g>
</svg>
